<svg width="30" height="30" viewBox="0 0 30 30" fill="none" xmlns="http://www.w3.org/2000/svg">
<path d="M15.096 14.7149V14.6428L12.6962 9.89666C12.6962 9.89666 12.1338 10.0121 11.5245 10.9858C11.1027 11.6566 0.177375 28.2319 0.116445 28.3617C-0.211642 29.083 0.191436 28.8522 0.852298 28.4843C0.889794 28.4843 6.21887 25.8444 6.21887 25.8444C6.2423 25.8011 6.21418 25.8372 6.24699 25.8011C6.22824 25.4333 6.20949 23.9113 6.20012 23.8032C6.172 23.4281 6.30323 23.3055 6.52821 23.1612L10.8683 20.7232C10.8965 20.6655 15.0163 14.8303 15.096 14.7149ZM22.5998 23.3776C23.2232 24.5389 23.57 24.3369 24.0434 24.0484C24.1934 23.9618 29.4521 20.615 29.5646 20.5213C29.9396 20.2111 29.4849 19.3167 29.2272 18.8335C29.1287 18.6531 19.6142 1.11856 19.5158 0.923807C19.0611 0.043832 18.8455 -0.00665836 17.716 0.000554548C17.2379 0.000554548 12.7103 0.036619 12.2557 0.0438319C11.3558 0.0510448 10.7137 0.0221932 11.3558 1.26281C11.7167 1.94804 22.3326 22.8799 22.5998 23.3776ZM29.7568 23.493C29.649 23.4714 28.6038 23.154 27.9757 22.9737C27.9757 22.9737 22.5857 26.609 22.4686 26.6955C21.7186 27.2221 21.2078 26.4647 20.7484 25.6424L18.0722 20.3049C17.8191 20.24 15.2413 19.6125 15.0116 19.6341C14.8663 19.6485 14.5617 19.6918 14.3367 19.8433C14.107 19.9947 7.53122 23.6517 7.29687 23.7887C7.05783 23.933 6.76256 24.0484 6.77662 24.3369C6.78599 24.5172 6.87036 24.5244 6.99222 24.5894C7.11876 24.6471 21.0953 29.4653 21.4281 29.5735C22.1592 29.8115 23.2325 30.3308 23.9403 29.6961C24.0387 29.6095 29.7427 24.1854 29.8365 24.0845C30.0896 23.7959 30.038 23.594 29.7568 23.493Z" fill="#98FB98"/>
</svg>
