<svg width="30" height="30" viewBox="0 0 30 30" fill="none" xmlns="http://www.w3.org/2000/svg">
<path d="M8.48438 0.996928C7.82227 -0.0460105 6.30469 -0.338971 5.32031 0.446163C2.06836 3.04179 0 6.91473 0 11.2505H15L8.48438 0.996928ZM29.0625 5.6257H26.25C24.1816 5.6257 22.5 7.30729 22.5 9.37559V13.1255H0C0 16.0902 1.34766 18.7738 3.5332 20.7835C1.50586 21.3049 0 23.1272 0 25.3126C0 27.9024 2.09766 30 4.6875 30C7.27734 30 9.375 27.9024 9.375 25.3126C9.375 24.7912 9.26953 24.3049 9.11719 23.8361C10.3828 24.1818 11.7305 24.3752 13.125 24.3752C14.5195 24.3752 15.873 24.1818 17.1328 23.8361C16.9746 24.3049 16.875 24.7912 16.875 25.3126C16.875 27.9024 18.9727 30 21.5625 30C24.1523 30 26.25 27.9024 26.25 25.3126C26.25 23.1272 24.7441 21.3049 22.7168 20.7835C24.9023 18.7738 26.25 16.0902 26.25 13.1255V9.37559H29.0625C29.5781 9.37559 30 8.95373 30 8.43812V6.56317C30 6.04756 29.5781 5.6257 29.0625 5.6257ZM4.6875 27.1876C3.65625 27.1876 2.8125 26.3439 2.8125 25.3126C2.8125 24.2814 3.65625 23.4377 4.6875 23.4377C5.71875 23.4377 6.5625 24.2814 6.5625 25.3126C6.5625 26.3439 5.71875 27.1876 4.6875 27.1876ZM23.4375 25.3126C23.4375 26.3439 22.5938 27.1876 21.5625 27.1876C20.5312 27.1876 19.6875 26.3439 19.6875 25.3126C19.6875 24.2814 20.5312 23.4377 21.5625 23.4377C22.5938 23.4377 23.4375 24.2814 23.4375 25.3126Z" fill="#98FB98"/>
</svg>
