<svg width="30" height="30" viewBox="0 0 30 30" fill="none" xmlns="http://www.w3.org/2000/svg">
<path d="M10.5004 14.9996C13.8146 14.9996 16.5006 11.6423 16.5006 7.49982C16.5006 3.35734 13.8146 0 10.5004 0C7.18622 0 4.50018 3.35734 4.50018 7.49982C4.50018 11.6423 7.18622 14.9996 10.5004 14.9996ZM14.7006 16.8746H13.9177C12.8771 17.4722 11.7192 17.8121 10.5004 17.8121C9.28161 17.8121 8.12844 17.4722 7.08309 16.8746H6.30025C2.82199 16.8746 0 20.4019 0 24.7494V27.1869C0 28.7396 1.00785 29.9993 2.25009 29.9993H15.1365C15.024 29.6009 14.9771 29.179 15.0146 28.7513L15.3334 25.183L15.3897 24.5326L15.76 24.0697L19.3836 19.5406C18.2351 17.9175 16.571 16.8746 14.7006 16.8746ZM16.8241 25.3881L16.5053 28.9622C16.4538 29.5598 16.8569 30.0637 17.3304 29.9934L20.1852 29.595L26.6495 21.5151L23.2884 17.314L16.8241 25.3881ZM29.673 15.7555L27.8964 13.5348C27.4604 12.9899 26.7479 12.9899 26.312 13.5348L24.54 15.7496L24.3478 15.9899L27.7136 20.1909L29.673 17.7418C30.109 17.191 30.109 16.3063 29.673 15.7555Z" fill="#98FB98"/>
</svg>
