<svg width="48" height="48" viewBox="0 0 48 48" fill="none" xmlns="http://www.w3.org/2000/svg">
<path d="M15 5.33841C14.2044 5.33841 13.4413 5.61929 12.8787 6.11925C12.3161 6.61921 12 7.2973 12 8.00436C12 8.71141 12.3161 9.3895 12.8787 9.88946C13.4413 10.3894 14.2044 10.6703 15 10.6703C15.7956 10.6703 16.5587 10.3894 17.1213 9.88946C17.6839 9.3895 18 8.71141 18 8.00436C18 7.2973 17.6839 6.61921 17.1213 6.11925C16.5587 5.61929 15.7956 5.33841 15 5.33841ZM6.51 5.33841C7.12981 3.77742 8.27922 2.4257 9.7998 1.46957C11.3204 0.513449 13.1373 0 15 0C16.8627 0 18.6796 0.513449 20.2002 1.46957C21.7208 2.4257 22.8702 3.77742 23.49 5.33841H45C45.7956 5.33841 46.5587 5.61929 47.1213 6.11925C47.6839 6.61921 48 7.2973 48 8.00436C48 8.71141 47.6839 9.3895 47.1213 9.88946C46.5587 10.3894 45.7956 10.6703 45 10.6703H23.49C22.8702 12.2313 21.7208 13.583 20.2002 14.5391C18.6796 15.4953 16.8627 16.0087 15 16.0087C13.1373 16.0087 11.3204 15.4953 9.7998 14.5391C8.27922 13.583 7.12981 12.2313 6.51 10.6703H3C2.20435 10.6703 1.44129 10.3894 0.87868 9.88946C0.316071 9.3895 0 8.71141 0 8.00436C0 7.2973 0.316071 6.61921 0.87868 6.11925C1.44129 5.61929 2.20435 5.33841 3 5.33841H6.51ZM33 21.3341C32.2044 21.3341 31.4413 21.6149 30.8787 22.1149C30.3161 22.6149 30 23.2929 30 24C30 24.7071 30.3161 25.3851 30.8787 25.8851C31.4413 26.3851 32.2044 26.6659 33 26.6659C33.7956 26.6659 34.5587 26.3851 35.1213 25.8851C35.6839 25.3851 36 24.7071 36 24C36 23.2929 35.6839 22.6149 35.1213 22.1149C34.5587 21.6149 33.7956 21.3341 33 21.3341ZM24.51 21.3341C25.1298 19.7731 26.2792 18.4213 27.7998 17.4652C29.3204 16.5091 31.1373 15.9956 33 15.9956C34.8627 15.9956 36.6796 16.5091 38.2002 17.4652C39.7208 18.4213 40.8702 19.7731 41.49 21.3341H45C45.7956 21.3341 46.5587 21.6149 47.1213 22.1149C47.6839 22.6149 48 23.2929 48 24C48 24.7071 47.6839 25.3851 47.1213 25.8851C46.5587 26.3851 45.7956 26.6659 45 26.6659H41.49C40.8702 28.2269 39.7208 29.5787 38.2002 30.5348C36.6796 31.4909 34.8627 32.0044 33 32.0044C31.1373 32.0044 29.3204 31.4909 27.7998 30.5348C26.2792 29.5787 25.1298 28.2269 24.51 26.6659H3C2.20435 26.6659 1.44129 26.3851 0.87868 25.8851C0.316071 25.3851 0 24.7071 0 24C0 23.2929 0.316071 22.6149 0.87868 22.1149C1.44129 21.6149 2.20435 21.3341 3 21.3341H24.51ZM15 37.3297C14.2044 37.3297 13.4413 37.6106 12.8787 38.1105C12.3161 38.6105 12 39.2886 12 39.9956C12 40.7027 12.3161 41.3808 12.8787 41.8808C13.4413 42.3807 14.2044 42.6616 15 42.6616C15.7956 42.6616 16.5587 42.3807 17.1213 41.8808C17.6839 41.3808 18 40.7027 18 39.9956C18 39.2886 17.6839 38.6105 17.1213 38.1105C16.5587 37.6106 15.7956 37.3297 15 37.3297ZM6.51 37.3297C7.12981 35.7687 8.27922 34.417 9.7998 33.4609C11.3204 32.5047 13.1373 31.9913 15 31.9913C16.8627 31.9913 18.6796 32.5047 20.2002 33.4609C21.7208 34.417 22.8702 35.7687 23.49 37.3297H45C45.7956 37.3297 46.5587 37.6106 47.1213 38.1105C47.6839 38.6105 48 39.2886 48 39.9956C48 40.7027 47.6839 41.3808 47.1213 41.8808C46.5587 42.3807 45.7956 42.6616 45 42.6616H23.49C22.8702 44.2226 21.7208 45.5743 20.2002 46.5304C18.6796 47.4866 16.8627 48 15 48C13.1373 48 11.3204 47.4866 9.7998 46.5304C8.27922 45.5743 7.12981 44.2226 6.51 42.6616H3C2.20435 42.6616 1.44129 42.3807 0.87868 41.8808C0.316071 41.3808 0 40.7027 0 39.9956C0 39.2886 0.316071 38.6105 0.87868 38.1105C1.44129 37.6106 2.20435 37.3297 3 37.3297H6.51Z" fill="#98FB98"/>
</svg>
