<svg width="30" height="30" viewBox="0 0 30 30" fill="none" xmlns="http://www.w3.org/2000/svg">
<path d="M30 21.0938V1.40625C30 0.626953 29.2835 0 28.3929 0H6.42857C2.87946 0 0 2.51953 0 5.625V24.375C0 27.4805 2.87946 30 6.42857 30H28.3929C29.2835 30 30 29.373 30 28.5938V27.6562C30 27.2168 29.7656 26.8184 29.404 26.5605C29.1228 25.6582 29.1228 23.0859 29.404 22.1836C29.7656 21.9316 30 21.5332 30 21.0938ZM8.57143 7.85156C8.57143 7.6582 8.75223 7.5 8.97321 7.5H23.1696C23.3906 7.5 23.5714 7.6582 23.5714 7.85156V9.02344C23.5714 9.2168 23.3906 9.375 23.1696 9.375H8.97321C8.75223 9.375 8.57143 9.2168 8.57143 9.02344V7.85156ZM8.57143 11.6016C8.57143 11.4082 8.75223 11.25 8.97321 11.25H23.1696C23.3906 11.25 23.5714 11.4082 23.5714 11.6016V12.7734C23.5714 12.9668 23.3906 13.125 23.1696 13.125H8.97321C8.75223 13.125 8.57143 12.9668 8.57143 12.7734V11.6016ZM25.5402 26.25H6.42857C5.2433 26.25 4.28571 25.4121 4.28571 24.375C4.28571 23.3438 5.25 22.5 6.42857 22.5H25.5402C25.4129 23.502 25.4129 25.248 25.5402 26.25Z" fill="#98FB98"/>
</svg>
